# xmcd
#
# Track frame offsets:
# 182
# 9562
# 20537
# 31587
# 41135
# 49972
# 63105
# 73807
# 85470
# 97772
# 108447
# 119117
# 129462
# 141490
# 152225
# 161720
# 173685
# 185427
# 198785
# 214525
# 227017
# 239300
# 254030
# 268157
#
# Disc length: 3752 seconds
#
#
# Revision: 0
# Processed by: cddbd v1.5.2PL0 Copyright (c) Steve Scherf et al.
# Submitted via: FreeRIP 2.945 
#
DISCID=580ea618
DTITLE=The Everly Brothers - Heartaches and Harmonies CD3
DYEAR=1994
DGENRE=Rock and Roll
TTITLE0=Gone, Gone, Gone 23 sept 1964
TTITLE1=Torture 23 sept 1964
TTITLE2=You're my girl 13 jan 1965
TTITLE3=The price of love 21 apr 1965
TTITLE4=It only costs a dime 21 apr 1965
TTITLE5=Love is strange 28 juli 1965
TTITLE6=Man with money 28 juli 1965
TTITLE7=To show i love you june 1987
TTITLE8=I'll see your light oct 1977
TTITLE9=It's all over11 dec 1965
TTITLE10=I used to love you 11 dec 1965
TTITLE11=And i'll go 17 nov 1965
TTITLE12=The power of love 2 apr 1966
TTITLE13=Leave my girl alone 2 ap[r 1966
TTITLE14=Somebody help me 2 juli 1966
TTITLE15=So lonely aug 1966
TTITLE16=Kiss your man goodbye aug 1966
TTITLE17=The collector aug 1966
TTITLE18=Even if i hold it in my hand 6 jan 1967
TTITLE19=Bowling green15 apr 1967
TTITLE20=I don't want to love you 15 apr 1967
TTITLE21=Mary Jane 29 juli 1967
TTITLE22=Love of the common people 7 oct 1967
TTITLE23=You're just what i looking for today '60
EXTD=4 CD Box
EXTT0=
EXTT1=
EXTT2=
EXTT3=
EXTT4=
EXTT5=
EXTT6=
EXTT7=
EXTT8=
EXTT9=
EXTT10=
EXTT11=
EXTT12=(Your got)
EXTT13=
EXTT14=
EXTT15=
EXTT16=
EXTT17=
EXTT18=(Hard luck story)
EXTT19=
EXTT20=
EXTT21=
EXTT22=
EXTT23=
PLAYORDER=
